<?xml version="1.0" encoding="utf-8"?>
<COLLADA xmlns="http://www.collada.org/2005/11/COLLADASchema" version="1.4.1" xmlns:xsi="http://www.w3.org/2001/XMLSchema-instance">
  <asset>
    <contributor>
      <author>Blender User</author>
      <authoring_tool>Blender 3.0.0 Alpha commit date:2021-04-16, commit time:05:10, hash:45eafd65622d</authoring_tool>
    </contributor>
    <created>2021-06-26T00:31:13</created>
    <modified>2021-06-26T00:31:13</modified>
    <unit name="meter" meter="1"/>
    <up_axis>Z_UP</up_axis>
  </asset>
  <library_effects>
    <effect id="Material-effect">
      <profile_COMMON>
        <newparam sid="color_5_png-surface">
          <surface type="2D">
            <init_from>color_5_png</init_from>
          </surface>
        </newparam>
        <newparam sid="color_5_png-sampler">
          <sampler2D>
            <source>color_5_png-surface</source>
          </sampler2D>
        </newparam>
        <technique sid="common">
          <lambert>
            <emission>
              <color sid="emission">0 0 0 1</color>
            </emission>
            <diffuse>
              <texture texture="color_5_png-sampler" texcoord="UVMap"/>
            </diffuse>
            <index_of_refraction>
              <float sid="ior">1.45</float>
            </index_of_refraction>
          </lambert>
        </technique>
      </profile_COMMON>
    </effect>
  </library_effects>
  <library_images>
    <image id="color_5_png" name="color_5_png">
      <init_from>color%205.png</init_from>
    </image>
  </library_images>
  <library_materials>
    <material id="Material-material" name="Material">
      <instance_effect url="#Material-effect"/>
    </material>
  </library_materials>
  <library_geometries>
    <geometry id="Cube-mesh" name="Cube">
      <mesh>
        <source id="Cube-mesh-positions">
          <float_array id="Cube-mesh-positions-array" count="375">1 -3.542027 0.02824831 1 -3.542027 -0.02824831 -1 -3.542027 0.02824831 -1 -3.542027 -0.02824831 0.478383 3.542027 0.02824831 0.6055133 3.542027 0.02824831 0.47628 3.271469 0.02824831 0.5018938 3.235241 0.02824831 0.5413948 3.227427 0.02824831 0.5786619 3.239302 0.02824831 0.6043046 3.275587 0.02824831 0.9020348 3.542027 0.02824831 1 3.204072 0.02824831 0.9017643 3.25167 0.02824831 0.9223413 3.209727 0.02824831 0.9047825 3.542027 -0.02824831 1 3.208376 -0.02824831 0.9133055 3.32113 -0.02824831 0.9130579 3.24803 -0.02824831 0.930234 3.217125 -0.02824831 0.6077318 3.542027 -0.02824831 0.4798721 3.542027 -0.02824831 0.6106138 3.282928 -0.02824831 0.5845568 3.234918 -0.02824831 0.5419148 3.227223 -0.02824831 0.5026253 3.233474 -0.02824831 0.4768574 3.279401 -0.02273613 -0.897381 3.542027 0.02824831 -1 3.174523 0.02824831 -0.8909273 3.219355 0.02824831 -0.9244526 3.175251 0.02824831 -0.8975923 3.542027 -0.02824831 -1 3.177963 -0.02824831 -0.8929314 3.227218 -0.02824831 -0.9230898 3.182273 -0.02824831 0.1352602 -3.542027 0.02824831 -0.1703909 -3.542027 0.02824831 -0.1462699 -3.453761 0.02824831 -0.05768781 -3.385555 0.02824831 0.02017891 -3.383553 0.02824831 0.08725118 -3.424194 0.02824831 0.1239558 -3.489109 0.02824831 -0.1681897 -3.542027 -0.02824831 0.1330677 -3.542027 -0.02824831 -0.1404267 -3.457984 -0.02824831 -0.07060706 -3.393621 -0.02824831 0.01834487 -3.387608 -0.02824831 0.08312147 -3.438419 -0.02824831 0.1248466 -3.487123 -0.02824831 -0.2456552 -1.026753 0.05975645 -0.002257585 -0.1744453 -0.02824831 -0.5015711 1.48139 0.02824831 -0.8469266 2.654542 0.02824831 0.5998363 1.838895 0.02824831 0.4955458 1.483102 0.02824831 0.6006693 1.483291 0.02824831 -0.8482597 3.060755 0.02824831 0.5969328 3.07295 0.02824831 -0.8430249 1.480794 0.02824831 -0.5015711 1.48139 0.06974679 -0.8469266 2.654542 0.06974679 0.5998363 1.838895 0.06974679 0.4955458 1.483102 0.06974679 0.6006693 1.483291 0.06974679 -0.8482597 3.060755 0.06974679 0.5969328 3.07295 0.06974679 -0.8430249 1.480794 0.06974679 0.4593546 1.359634 0.02824831 0.1296743 0.2349144 0.02824831 0.7404394 1.363317 0.02824831 0.7338598 0.2526114 0.02824831 0.07231932 0.2332311 0.02824831 0.0718795 1.354517 0.02824831 0.4593546 1.359634 0.05132311 0.1296743 0.2349144 0.05132311 0.7404394 1.363317 0.05132311 0.7338598 0.2526114 0.05132311 0.07231932 0.2332311 0.05132311 0.0718795 1.354517 0.05132311 -0.2122176 -0.9152594 0.02824831 -0.09151405 0.08845162 0.02824831 0.2075169 -0.9111574 0.02824831 0.08837908 0.09403395 0.02824831 0.6379922 -0.9069352 0.02824831 0.6445388 0.1112923 0.02824831 -0.9139131 -0.9221132 0.02824831 -0.9132381 0.06294506 0.02824831 -0.2456552 -1.026753 0.02824831 -0.5516114 -2.046928 0.02824831 0.5465256 -2.036592 0.02824831 0.2372605 -1.009899 0.02824831 0.8917173 -0.9870751 0.02824831 0.907149 -2.033234 0.02824831 -0.7162308 -2.048478 0.02824831 -0.712113 -1.043049 0.02824831 -0.5862484 -2.162421 0.02824831 -0.705519 -2.560115 0.02824831 0.8978261 -3.202832 0.02824831 0.5738472 -2.127293 0.02824831 0.9000657 -2.117417 0.02824831 -0.6945769 -3.188766 0.02824831 -0.7123867 -2.166241 0.02824831 -0.002194404 -0.2149618 0.05975645 -0.2122176 -0.9152594 0.05975645 -0.09151405 0.08845162 0.05975645 0.2075169 -0.9111574 0.05975645 0.08837908 0.09403395 0.05975645 0.6379922 -0.9069352 0.05975645 0.6445388 0.1112923 0.05975645 -0.9139131 -0.9221132 0.05975645 -0.9132381 0.06294506 0.05975645 -0.5516114 -2.046928 0.05975645 0.5465256 -2.036592 0.05975645 0.2372605 -1.009899 0.05975645 0.8917173 -0.9870751 0.05975645 0.907149 -2.033234 0.05975645 -0.7162308 -2.048478 0.05975645 -0.712113 -1.043049 0.05975645 -0.5862484 -2.162421 0.05975645 -0.705519 -2.560115 0.05975645 0.8978261 -3.202832 0.05975645 0.5738472 -2.127293 0.05975645 0.9000657 -2.117417 0.05975645 -0.6945769 -3.188766 0.05975645 -0.7123867 -2.166241 0.05975645</float_array>
          <technique_common>
            <accessor source="#Cube-mesh-positions-array" count="125" stride="3">
              <param name="X" type="float"/>
              <param name="Y" type="float"/>
              <param name="Z" type="float"/>
            </accessor>
          </technique_common>
        </source>
        <source id="Cube-mesh-normals">
          <float_array id="Cube-mesh-normals-array" count="543">0.5773299 -0.5773605 -0.5773605 0.5795059 -0.487001 0.6534548 0.5876306 -0.4740049 -0.6557511 -0.5773503 -0.5773503 -0.5773503 -0.5830625 0.5549241 0.5933779 -0.5834909 0.5884349 -0.5597167 -0.3105321 0.4424358 -0.8413207 -0.3650156 0.5386421 0.7593606 -0.6307805 0.1967603 0.7506008 0 0 1 0.6046493 0.5187069 0.6044356 0.6058568 0.5602315 -0.5648702 0.7744106 0.001342773 -0.632682 0.550989 0.5874897 0.5926778 0.5658243 0.1218628 0.8154706 0.3351971 0.5301566 -0.7788305 0.6854913 0.1809482 -0.7052372 0.2714673 0.3988844 0.8758977 -0.02371329 0.65207 -0.757788 -0.04034608 0.6444089 0.7636161 -0.5638651 0.5798569 -0.5880665 0.580197 0.5850496 -0.5666466 -0.5881717 0.5765132 0.5671743 0.3031184 0.4972827 -0.8129141 0.3330894 0.5062569 0.7954593 0.585446 0.1828088 0.7898316 0.6500505 0.1975482 -0.7337636 0.5880218 0.5674821 -0.5763633 0.5723568 0.5760496 0.5835878 0 0 -1 -0.582302 0.5729632 -0.5767475 -0.2389656 0.4843098 0.8416291 -0.5809332 0.5734255 0.5776677 -0.6272649 0.1693215 -0.7601768 -0.3074805 0.5292633 -0.790782 -0.5606601 0.1887585 0.8062446 0.464291 -0.6459729 0.6059315 0.4817157 -0.6503955 -0.5873123 0.5801108 0.268112 -0.7691473 0.6264401 0.2616729 0.7342345 0.578831 -0.3580231 -0.7326488 0.1819555 -0.074772 -0.9804599 0.09525084 -0.1762186 0.9797317 -0.1719769 -0.5596957 0.8106569 0.181375 -0.573637 0.7987764 -0.1944354 -0.608057 -0.7697152 0.4914222 -0.3103815 0.8137369 0.2639905 -0.5832513 -0.7681972 0 0 1 0.009807765 -0.9999519 0 0 0 -1 0 0 -1 0 0 -1 -0.9999947 -0.003281652 0 0.9999973 0.002352774 0 -0.9999946 -0.003324091 0 0 0 1 0 0 1 0.9999973 0.002342402 0 0.001744508 -0.9999985 0 -0.008437931 0.9999644 0 0.001717269 -0.9999986 0 0.001797318 -0.9999984 0 -1 -3.92214e-4 0 0.02933502 -0.9995697 0 0.9999825 -0.005923688 0 -0.01320683 0.9999129 0 0.02927803 -0.9995714 0 -0.01309984 0.9999142 0 -0.03101629 0.9995189 0 0.009772479 -0.9999523 0 -0.0310254 0.9995186 0 -0.03487932 0.9993916 0 -0.9999917 0.004095375 0 0.009410619 -0.9999558 0 -0.9998487 -0.01740294 0 -0.03026646 0.9995419 0 -0.03026801 0.9995419 0 0 0 1 0 0 1 -0.9999998 6.85348e-4 0 0.009766936 -0.9999524 0 -0.03101634 0.9995189 0 0.9999793 -0.006429314 0 0 0 1 0.9998912 0.0147491 0 -0.03491437 0.9993903 0 0.009412646 -0.9999557 0 0.009310901 -0.9999567 0 -0.03485393 0.9993925 0 0 0 1 0.999998 -0.002063274 0 -0.9998481 -0.01743352 0 -0.008832514 -0.999961 0 -0.03026181 0.9995421 0 0.5773605 -0.5773605 0.5773299 -0.5773503 -0.5773503 0.5773503 -0.595004 0.1326063 -0.7927079 0 0 1 0 0 1 -1.45146e-7 0 1 0 0 1 0 0 1 0 0 1 0 0 1 0 0 -1 0.004021763 5.95442e-5 -0.999992 0 -0.02098393 -0.9997798 0 0 -1 0 0 -1 -5.32873e-4 0.1188682 -0.99291 0 0 1 0 0 1 0 0 1 0 0 1 0 0 1 0 0 1 0 0 1 0 0 1 0 0 1 0 0 1 0 0 1 0.009807765 -0.9999519 0 0 0 -1 0 0 -1 0 0 -1 -0.9999946 -0.003282129 0 0.9999973 0.002352714 0 0 0 1 0 0 1 -0.9999945 -0.003323972 0 0 0 1 0.9999973 0.002342641 0 0.001744508 -0.9999985 0 -0.008437931 0.9999644 0 0.001717269 -0.9999986 0 0.001797318 -0.9999984 0 0 0 1 -1 -3.92205e-4 0 0.02933502 -0.9995697 0 0 0 1 0.9999825 -0.005923688 0 -0.01320683 0.9999129 0 0.02927803 -0.9995714 0 -0.01309984 0.9999142 0 0 0 1 0 0 1 0 0 1 0 0 1 0 0 1 0 0 1 0 0 1 4.02653e-7 0 1 0.009772479 -0.9999523 0 -0.0310254 0.9995186 0 -0.03487932 0.9993916 0 -0.9999917 0.004095494 0 0 0 1 0.009410619 -0.9999558 0 -0.9998486 -0.01740312 0 -0.03026646 0.9995419 0 0 0 1 -0.03026795 0.9995418 0 0 0 1 0 0 1 0 0 1 0 0 1 -0.03101634 0.9995189 0 0.9999794 -0.006429195 0 0 0 1 0 0 1 0 0 1 0.9998913 0.01474934 0 -0.03491437 0.9993904 0 0.009412646 -0.9999558 0 0.009310901 -0.9999567 0 -0.03485393 0.9993925 0 0 0 1 0.9999979 -0.002063274 0 -0.9998481 -0.01743352 0 -0.03026181 0.999542 0</float_array>
          <technique_common>
            <accessor source="#Cube-mesh-normals-array" count="181" stride="3">
              <param name="X" type="float"/>
              <param name="Y" type="float"/>
              <param name="Z" type="float"/>
            </accessor>
          </technique_common>
        </source>
        <source id="Cube-mesh-map-0">
          <float_array id="Cube-mesh-map-0-array" count="1476">0.5182194 0.2265548 0.4688562 0.2467364 0.468731 0.2265548 0.5219319 0.2479652 0.4074243 0.2350391 0.407158 0.2479652 0.6083339 0.2192532 0.6047797 0.1985317 0.6080995 0.1959891 0.6132428 0.6505253 0.61814 0.6525377 0.5947514 0.783975 0.5161702 0.2221126 0.4011589 0.235039 0.5162436 0.2350389 0.6396251 0.2212904 0.6456444 0.202224 0.6402103 0.2048366 0.6312457 0.2260867 0.6360579 0.1951103 0.6295044 0.229864 0.6351019 0.223819 0.6364533 0.2028029 0.6312457 0.2260867 0.6351019 0.223819 0.6396251 0.2212904 0.6402103 0.2048366 0.6047797 0.1985317 0.6077212 0.2150662 0.6036306 0.2022172 0.9769132 0.2267693 0.9629778 0.2099163 0.9771699 0.209734 0.6320266 0.1957917 0.6354871 0.2192881 0.6080995 0.1959891 0.6036306 0.2022172 0.6083446 0.211201 0.6042464 0.2061184 0.6042464 0.2061184 0.6083446 0.211201 0.6091436 0.2081307 0 0 0 0 0 0 0 0 0 0 0 0 0 0 0 0 0 0 0.6455586 0.285825 0.9506951 0.3402646 0.9500717 0.3441298 0.9753704 0.3291275 0.9625541 0.2380235 0.9767853 0.2352522 0.4450847 0.2388501 0.4383638 0.2402291 0.4445406 0.2292383 0.4045436 0.2388846 0.4046841 0.2292383 0.4328428 0.2307364 0.4383638 0.2402291 0.437685 0.2305889 0.4445406 0.2292383 0.4334082 0.2404254 0.437685 0.2305889 0.4383638 0.2402291 0.4334082 0.2404254 0.4045436 0.2388846 0.4328428 0.2307364 0.4334082 0.2404254 0.4328428 0.2307364 0.437685 0.2305889 0.4514082 0.2467363 0.4040504 0.2265548 0.4515339 0.2265548 0.3641442 0.3046981 0.3699718 0.3052455 0.363552 0.3086665 0.3693845 0.2741498 0.363552 0.2746723 0.3646245 0.2809895 0.3699718 0.3052455 0.3641442 0.3046981 0.3649343 0.3001218 0.3710036 0.2999342 0.3699718 0.3052455 0.3649343 0.3001218 0.3710036 0.2999342 0.3711754 0.2942997 0.3649343 0.3001218 0.3699718 0.3052455 0.3693976 0.3091138 0.363552 0.3086665 0.3711754 0.2942997 0.3710757 0.2887026 0.3652818 0.2942105 0.3705317 0.2806773 0.3646245 0.2809895 0.3651295 0.2878046 0.3710757 0.2887026 0.3705317 0.2806773 0.3651295 0.2878046 0.3711754 0.2942997 0.3652818 0.2942105 0.3649343 0.3001218 0.3705317 0.2806773 0.3693845 0.2741498 0.3646245 0.2809895 0.3710757 0.2887026 0.3651295 0.2878046 0.3652818 0.2942105 0.0400747 0.7727335 0.01966583 0.7085217 0.0195105 0.7006474 0.3289626 0.7924824 0.604635 0.7989966 0.009748816 0.8038805 0.2399905 0.6372696 0.2402289 0.679828 0.2402289 0.679828 0.3595902 0.289013 0.3594623 0.282062 0.6455586 0.285825 0.6455586 0.285825 0.3449731 0.1891465 0.9501841 0.1879247 0.3509998 0.3892392 0.6455586 0.285825 0.9475044 0.3829409 0.4564223 0.6512267 0.4562879 0.6408338 0.4884604 0.6408975 0.5584403 0.78389 0.5947514 0.783975 0.5947514 0.783975 0.5988135 0.6411362 0.4884604 0.6408975 0.4884604 0.6408975 0.4542185 0.7498072 0.3437576 0.6931341 0.4440496 0.6931193 0.4544777 0.7843488 0.5584403 0.78389 0.5584403 0.78389 0.5584403 0.78389 0.4542185 0.7498072 0.4884604 0.6408975 0.5584403 0.78389 0.4544777 0.7843488 0.4542185 0.7498072 0.4884604 0.6408975 0.4562879 0.6408338 0.4562879 0.6408338 0.4542185 0.7498072 0.4544777 0.7843488 0.4544777 0.7843488 0.5947514 0.783975 0.5988135 0.6411362 0.5988135 0.6411362 0.4564223 0.6512267 0.4542185 0.7498072 0.4542185 0.7498072 0.4562879 0.6408338 0.4564223 0.6512267 0.4564223 0.6512267 0.3447564 0.6277308 0.4453043 0.6548112 0.3440261 0.6874637 0.3437576 0.6931341 0.4440496 0.6931193 0.4440496 0.6931193 0.3440261 0.6874637 0.3437576 0.6931341 0.3437576 0.6931341 0.4440496 0.6931193 0.3440261 0.6874637 0.4453043 0.6548112 0.4452323 0.627022 0.3447564 0.6277308 0.3447564 0.6277308 0.4440496 0.6931193 0.4453043 0.6548112 0.4453043 0.6548112 0.3447564 0.6277308 0.3440261 0.6874637 0.3440261 0.6874637 0.4453043 0.6548112 0.4452323 0.627022 0.4452323 0.627022 0.2323746 0.6121895 0.001072287 0.6016187 0.6113913 0.6012641 0.3313401 0.6915536 0.3321 0.6365688 0.3321 0.6365688 0.2402289 0.679828 0.2416823 0.7222791 0.2416823 0.7222791 0.3289626 0.7924824 0.3304709 0.7093392 0.3304709 0.7093392 0.2318378 0.7257428 0.2312529 0.6768926 0.2312529 0.6768926 0.1417735 0.7740887 0.2308207 0.7729409 0.2308207 0.7729409 0.2312529 0.6768926 0.2416823 0.7222791 0.2318378 0.7257428 0.1417603 0.7574348 0.1417735 0.7740887 0.1417735 0.7740887 0.0400747 0.7727335 0.09644788 0.7733771 0.09644788 0.7733771 0.1315627 0.7610226 0.1296772 0.6436753 0.1296772 0.6436753 0.1296772 0.6436753 0.1417603 0.7574348 0.1315627 0.7610226 0.1313397 0.7737854 0.1315627 0.7610226 0.1315627 0.7610226 0.3321 0.6365688 0.3035159 0.7005242 0.2399905 0.6372696 0.3313401 0.6915536 0.3304709 0.7093392 0.3035159 0.7005242 0.2416823 0.7222791 0.2402289 0.679828 0.3035159 0.7005242 0.3289626 0.7924824 0.2416823 0.7222791 0.3035159 0.7005242 0.2417165 0.793267 0.3289626 0.7924824 0.3289626 0.7924824 0.2416823 0.7222791 0.2417165 0.793267 0.2417165 0.793267 0.3304709 0.7093392 0.3313401 0.6915536 0.3313401 0.6915536 0.3321 0.6365688 0.2399905 0.6372696 0.2399905 0.6372696 0.1379224 0.6463716 0.2323746 0.6121895 0.2312529 0.6768926 0.1379224 0.6463716 0.2318378 0.7257428 0.1417603 0.7574348 0.2308207 0.7729409 0.1417603 0.7574348 0.2318378 0.7257428 0.2323746 0.6121895 0.1377064 0.610719 0.1377064 0.610719 0.2308207 0.7729409 0.2318378 0.7257428 0.2318378 0.7257428 0.1379224 0.6463716 0.1417603 0.7574348 0.1417603 0.7574348 0.1377064 0.610719 0.1379224 0.6463716 0.1379224 0.6463716 0.2312529 0.6768926 0.2323746 0.6121895 0.2323746 0.6121895 0.03190642 0.6117021 0.1301006 0.6114237 0.1296772 0.6436753 0.1296772 0.6436753 0.09644788 0.7733771 0.03190642 0.6117021 0.1315627 0.7610226 0.1313397 0.7737854 0.09644788 0.7733771 0.1301006 0.6114237 0.03190642 0.6117021 0.03190642 0.6117021 0.09644788 0.7733771 0.1313397 0.7737854 0.1313397 0.7737854 0.03190642 0.6117021 0.0400747 0.7727335 0.0400747 0.7727335 0.1296772 0.6436753 0.1301006 0.6114237 0.1301006 0.6114237 0.5182194 0.2265548 0.5182194 0.2467364 0.4688562 0.2467364 0.5219319 0.2479652 0.5219319 0.235039 0.4074243 0.2350391 0.6080995 0.1959891 0.6354871 0.2192881 0.6125338 0.2217406 0.6125338 0.2217406 0.6083339 0.2192532 0.6080995 0.1959891 0.4884604 0.6408975 0.6113913 0.6012641 0.5988135 0.6411362 0.6113913 0.6012641 0.6117867 0.6089567 0.5988135 0.6411362 0.6155437 0.6109904 0.6417318 0.6109197 0.6170959 0.6403961 0.6417318 0.6109197 0.6410229 0.6401987 0.6170959 0.6403961 0.6117867 0.6089567 0.6155437 0.6109904 0.5988135 0.6411362 0.6155437 0.6109904 0.6170959 0.6403961 0.5988135 0.6411362 0.6170959 0.6403961 0.6137761 0.6429386 0.5988135 0.6411362 0.5947514 0.783975 0.5988135 0.6411362 0.6132428 0.6505253 0.612627 0.6466242 0.5988135 0.6411362 0.6137761 0.6429386 0.604635 0.7989966 0.5584403 0.78389 0.5947514 0.783975 0.6048165 0.791511 0.604635 0.7989966 0.5947514 0.783975 0.5988135 0.6411362 0.612627 0.6466242 0.6132428 0.6505253 0.6087835 0.7881606 0.6048165 0.791511 0.5947514 0.783975 0.6407191 0.6527517 0.6374301 0.7885966 0.61814 0.6525377 0.6374301 0.7885966 0.6087835 0.7881606 0.61814 0.6525377 0.6087835 0.7881606 0.5947514 0.783975 0.61814 0.6525377 0.5161702 0.2221126 0.4011589 0.2221129 0.4011589 0.235039 0.6396251 0.2212904 0.6592177 0.22028 0.6456444 0.202224 0.6312457 0.2260867 0.6364533 0.2028029 0.6360579 0.1951103 0.6351019 0.223819 0.6402103 0.2048366 0.6364533 0.2028029 0.6047797 0.1985317 0.6083339 0.2192532 0.6077212 0.2150662 0.9769132 0.2267693 0.9626812 0.229589 0.9629778 0.2099163 0.6036306 0.2022172 0.6077212 0.2150662 0.6083446 0.211201 0.6455586 0.285825 0.9501841 0.1879247 0.9501998 0.195535 0.9533217 0.19852 0.9815631 0.1981052 0.9536558 0.336827 0.9815631 0.1981052 0.9781464 0.3359001 0.9536558 0.336827 0.6455586 0.285825 0.9501998 0.195535 0.9506951 0.3402646 0.9501998 0.195535 0.9533217 0.19852 0.9506951 0.3402646 0.9492458 0.3791637 0.9475044 0.3829409 0.6455586 0.285825 0.9772176 0.3733569 0.957625 0.3743674 0.9778377 0.3483517 0.957625 0.3743674 0.9531019 0.3768959 0.9548844 0.3508042 0.9548844 0.3508042 0.9531019 0.3768959 0.9506844 0.3483168 0.9531019 0.3768959 0.9492458 0.3791637 0.9506844 0.3483168 0.9492458 0.3791637 0.6455586 0.285825 0.9500717 0.3441298 0.9506844 0.3483168 0.9492458 0.3791637 0.9500717 0.3441298 0.9533217 0.19852 0.9536558 0.336827 0.9506951 0.3402646 0.9548844 0.3508042 0.9778377 0.3483517 0.957625 0.3743674 0.9753704 0.3291275 0.9611784 0.3292984 0.9625541 0.2380235 0.4514082 0.2467363 0.4040504 0.2467364 0.4040504 0.2265548 0.004823744 0.6890706 0.001072287 0.6016187 0.03190642 0.6117021 0.0400747 0.7727335 0.09644788 0.7733771 0.009748816 0.8038805 0.009611129 0.6901936 0.004823744 0.6890706 0.03190642 0.6117021 0.01558285 0.6938807 0.009611129 0.6901936 0.03190642 0.6117021 0.03190642 0.6117021 0.0400747 0.7727335 0.0195105 0.7006474 0.0400747 0.7727335 0.009748816 0.8038805 0.006149768 0.7199814 0.01966583 0.7085217 0.0400747 0.7727335 0.01394397 0.7175066 0.006149768 0.7199814 0.01394397 0.7175066 0.0400747 0.7727335 0.0195105 0.7006474 0.01558285 0.6938807 0.03190642 0.6117021 0.009748816 0.8038805 0.09644788 0.7733771 0.1313397 0.7737854 0.1313397 0.7737854 0.1315627 0.7610226 0.1417735 0.7740887 0.1315627 0.7610226 0.1417603 0.7574348 0.1417735 0.7740887 0.4544777 0.7843488 0.5584403 0.78389 0.604635 0.7989966 0.3304709 0.7093392 0.4542185 0.7498072 0.3289626 0.7924824 0.4542185 0.7498072 0.4544777 0.7843488 0.3289626 0.7924824 0.009748816 0.8038805 0.1313397 0.7737854 0.1417735 0.7740887 0.2308207 0.7729409 0.2318378 0.7257428 0.2416823 0.7222791 0.009748816 0.8038805 0.1417735 0.7740887 0.2417165 0.793267 0.1417735 0.7740887 0.2308207 0.7729409 0.2417165 0.793267 0.3289626 0.7924824 0.4544777 0.7843488 0.604635 0.7989966 0.2308207 0.7729409 0.2416823 0.7222791 0.2417165 0.793267 0.2417165 0.793267 0.3289626 0.7924824 0.009748816 0.8038805 0.2399905 0.6372696 0.2399905 0.6372696 0.2402289 0.679828 0.3474797 0.2723661 0.3449731 0.1891465 0.3550623 0.2751013 0.3449731 0.1891465 0.6455586 0.285825 0.3594623 0.282062 0.3550623 0.2751013 0.3449731 0.1891465 0.3594623 0.282062 0.6455586 0.285825 0.3509998 0.3892392 0.3595902 0.289013 0.3509998 0.3892392 0.3483874 0.3025058 0.3532591 0.3016545 0.3509998 0.3892392 0.3532591 0.3016545 0.3576927 0.2974534 0.3509998 0.3892392 0.3576927 0.2974534 0.3595902 0.289013 0.5584403 0.78389 0.5584403 0.78389 0.5947514 0.783975 0.5988135 0.6411362 0.5988135 0.6411362 0.4884604 0.6408975 0.4453043 0.6548112 0.4564223 0.6512267 0.4440496 0.6931193 0.4564223 0.6512267 0.4542185 0.7498072 0.4440496 0.6931193 0.4542185 0.7498072 0.3304709 0.7093392 0.3437576 0.6931341 0.3304709 0.7093392 0.3313401 0.6915536 0.3437576 0.6931341 0.3313401 0.6915536 0.3440261 0.6874637 0.3437576 0.6931341 0.4544777 0.7843488 0.4544777 0.7843488 0.5584403 0.78389 0.4564223 0.6512267 0.4884604 0.6408975 0.4542185 0.7498072 0.4884604 0.6408975 0.5988135 0.6411362 0.5584403 0.78389 0.5988135 0.6411362 0.5947514 0.783975 0.5584403 0.78389 0.4884604 0.6408975 0.4884604 0.6408975 0.4562879 0.6408338 0.4542185 0.7498072 0.4542185 0.7498072 0.4544777 0.7843488 0.5947514 0.783975 0.5947514 0.783975 0.5988135 0.6411362 0.4564223 0.6512267 0.4564223 0.6512267 0.4542185 0.7498072 0.4562879 0.6408338 0.4562879 0.6408338 0.4564223 0.6512267 0.3447564 0.6277308 0.4452323 0.627022 0.4453043 0.6548112 0.3437576 0.6931341 0.3437576 0.6931341 0.4440496 0.6931193 0.3440261 0.6874637 0.3440261 0.6874637 0.3437576 0.6931341 0.4440496 0.6931193 0.3437576 0.6931341 0.3440261 0.6874637 0.4452323 0.627022 0.4452323 0.627022 0.3447564 0.6277308 0.4440496 0.6931193 0.4440496 0.6931193 0.4453043 0.6548112 0.3447564 0.6277308 0.3447564 0.6277308 0.3440261 0.6874637 0.4453043 0.6548112 0.4453043 0.6548112 0.4452323 0.627022 0.3440261 0.6874637 0.3313401 0.6915536 0.3321 0.6365688 0.2399905 0.6372696 0.2402289 0.679828 0.2312529 0.6768926 0.3447564 0.6277308 0.3440261 0.6874637 0.3321 0.6365688 0.2399905 0.6372696 0.2312529 0.6768926 0.2323746 0.6121895 0.3447564 0.6277308 0.3321 0.6365688 0.2323746 0.6121895 0.3321 0.6365688 0.2399905 0.6372696 0.2323746 0.6121895 0.4564223 0.6512267 0.4453043 0.6548112 0.4562879 0.6408338 0.4453043 0.6548112 0.4452323 0.627022 0.4562879 0.6408338 0.4452323 0.627022 0.3447564 0.6277308 0.2323746 0.6121895 0.1377064 0.610719 0.1379224 0.6463716 0.1296772 0.6436753 0.1377064 0.610719 0.1296772 0.6436753 0.1301006 0.6114237 0.1301006 0.6114237 0.03190642 0.6117021 0.001072287 0.6016187 0.6113913 0.6012641 0.4884604 0.6408975 0.4452323 0.627022 0.4884604 0.6408975 0.4562879 0.6408338 0.4452323 0.627022 0.1377064 0.610719 0.1301006 0.6114237 0.001072287 0.6016187 0.6113913 0.6012641 0.4452323 0.627022 0.2323746 0.6121895 0.2323746 0.6121895 0.1377064 0.610719 0.001072287 0.6016187 0.3313401 0.6915536 0.3313401 0.6915536 0.3321 0.6365688 0.2402289 0.679828 0.2402289 0.679828 0.2416823 0.7222791 0.3289626 0.7924824 0.3289626 0.7924824 0.3304709 0.7093392 0.2318378 0.7257428 0.2318378 0.7257428 0.2312529 0.6768926 0.1417735 0.7740887 0.1417735 0.7740887 0.2308207 0.7729409 0.2312529 0.6768926 0.2402289 0.679828 0.2416823 0.7222791 0.1417603 0.7574348 0.1417603 0.7574348 0.1417735 0.7740887 0.0400747 0.7727335 0.0400747 0.7727335 0.09644788 0.7733771 0.1315627 0.7610226 0.1315627 0.7610226 0.1296772 0.6436753 0.1296772 0.6436753 0.1379224 0.6463716 0.1417603 0.7574348 0.1313397 0.7737854 0.1313397 0.7737854 0.1315627 0.7610226 0.3313401 0.6915536 0.3035159 0.7005242 0.3321 0.6365688 0.3035159 0.7005242 0.2402289 0.679828 0.2399905 0.6372696 0.3035159 0.7005242 0.3304709 0.7093392 0.3289626 0.7924824 0.3289626 0.7924824 0.2417165 0.793267 0.2416823 0.7222791 0.2417165 0.793267 0.2417165 0.793267 0.3289626 0.7924824 0.2416823 0.7222791 0.2416823 0.7222791 0.2417165 0.793267 0.3304709 0.7093392 0.3304709 0.7093392 0.3313401 0.6915536 0.3321 0.6365688 0.3321 0.6365688 0.2399905 0.6372696 0.1379224 0.6463716 0.1377064 0.610719 0.2323746 0.6121895 0.1379224 0.6463716 0.2312529 0.6768926 0.2318378 0.7257428 0.2308207 0.7729409 0.1417735 0.7740887 0.1417603 0.7574348 0.2323746 0.6121895 0.2323746 0.6121895 0.1377064 0.610719 0.2308207 0.7729409 0.2308207 0.7729409 0.2318378 0.7257428 0.1379224 0.6463716 0.1379224 0.6463716 0.1417603 0.7574348 0.1377064 0.610719 0.1377064 0.610719 0.1379224 0.6463716 0.2312529 0.6768926 0.2312529 0.6768926 0.2323746 0.6121895 0.1315627 0.7610226 0.09644788 0.7733771 0.1296772 0.6436753 0.09644788 0.7733771 0.0400747 0.7727335 0.03190642 0.6117021 0.1301006 0.6114237 0.1301006 0.6114237 0.03190642 0.6117021 0.09644788 0.7733771 0.09644788 0.7733771 0.1313397 0.7737854 0.03190642 0.6117021 0.03190642 0.6117021 0.0400747 0.7727335 0.1296772 0.6436753 0.1296772 0.6436753 0.1301006 0.6114237</float_array>
          <technique_common>
            <accessor source="#Cube-mesh-map-0-array" count="738" stride="2">
              <param name="S" type="float"/>
              <param name="T" type="float"/>
            </accessor>
          </technique_common>
        </source>
        <vertices id="Cube-mesh-vertices">
          <input semantic="POSITION" source="#Cube-mesh-positions"/>
        </vertices>
        <triangles material="Material-material" count="246">
          <input semantic="VERTEX" source="#Cube-mesh-vertices" offset="0"/>
          <input semantic="NORMAL" source="#Cube-mesh-normals" offset="1"/>
          <input semantic="TEXCOORD" source="#Cube-mesh-map-0" offset="2" set="0"/>
          <p>1 0 0 35 1 1 43 2 2 3 3 3 28 4 4 32 5 5 23 6 6 9 7 7 10 8 8 7 9 9 6 9 10 56 9 11 12 10 12 1 0 13 16 11 14 17 12 15 11 13 16 13 14 17 19 15 18 12 10 19 16 11 20 18 16 21 14 17 22 19 15 23 18 16 24 17 12 25 13 14 26 9 7 27 24 18 28 8 19 29 20 20 30 11 13 31 15 21 32 5 22 33 20 20 34 10 8 35 8 19 36 25 23 37 7 24 38 7 24 39 25 23 40 6 25 41 6 25 42 25 23 43 26 26 44 26 26 45 21 27 46 4 28 47 6 25 48 26 26 49 4 28 50 50 29 51 25 29 52 24 29 53 31 30 54 4 28 55 21 27 56 28 4 57 30 31 58 32 5 59 27 32 60 31 30 61 33 33 62 30 31 63 34 34 64 32 5 65 29 35 66 34 34 67 30 31 68 29 35 69 27 32 70 33 33 71 29 35 72 33 33 73 34 34 74 36 36 75 3 3 76 42 37 77 48 38 78 41 39 79 43 2 80 36 36 81 42 37 82 44 40 83 41 39 84 48 38 85 47 41 86 40 42 87 41 39 88 47 41 89 40 42 90 39 43 91 47 41 92 41 39 93 35 1 94 43 2 95 39 43 96 38 44 97 46 45 98 37 46 99 44 40 100 45 47 101 38 44 102 37 46 103 45 47 104 39 43 105 46 45 106 47 41 107 37 46 108 36 36 109 44 40 110 38 44 111 45 47 112 46 45 113 100 48 114 38 48 115 39 48 116 86 9 117 28 9 118 2 9 119 83 49 120 105 49 121 81 49 122 46 50 123 45 50 124 50 50 125 50 51 126 3 51 127 32 51 128 1 52 129 50 52 130 16 52 131 62 9 132 63 9 133 61 9 134 52 53 135 64 53 136 56 53 137 57 54 138 61 54 139 53 54 140 51 9 141 71 9 142 72 9 143 58 55 144 60 55 145 52 55 146 60 56 147 59 56 148 61 56 149 60 57 150 66 57 151 59 57 152 53 58 153 63 58 154 55 58 155 51 59 156 66 59 157 58 59 158 56 60 159 65 60 160 57 60 161 54 61 162 59 61 163 51 61 164 55 62 165 62 62 166 54 62 167 76 9 168 73 9 169 74 9 170 71 63 171 78 63 172 72 63 173 68 64 174 77 64 175 71 64 176 78 9 177 74 9 178 73 9 179 69 65 180 76 65 181 70 65 182 72 66 183 73 66 184 67 66 185 70 67 186 74 67 187 68 67 188 67 68 189 75 68 190 69 68 191 91 9 192 0 9 193 12 9 194 82 69 195 108 69 196 84 69 197 81 70 198 103 70 199 79 70 200 86 71 201 104 71 202 80 71 203 87 72 204 113 72 205 90 72 206 93 73 207 117 73 208 94 73 209 90 9 210 79 9 211 87 9 212 88 74 213 116 74 214 93 74 215 100 75 216 119 75 217 96 75 218 95 76 219 121 76 220 98 76 221 98 9 222 88 9 223 95 9 224 101 77 225 118 77 226 95 77 227 108 9 228 102 9 229 107 9 230 106 78 231 104 78 232 102 78 233 103 9 234 105 9 235 102 9 236 110 79 237 103 79 238 102 79 239 85 80 240 110 80 241 86 80 242 79 81 243 109 81 244 85 81 245 80 82 246 106 82 247 82 82 248 84 83 249 107 83 250 83 83 251 112 84 252 114 84 253 113 84 254 112 9 255 49 9 256 111 9 257 117 9 258 111 9 259 49 9 260 91 85 261 115 85 262 92 85 263 94 86 264 49 86 265 87 86 266 89 87 267 111 87 268 88 87 269 92 88 270 112 88 271 89 88 272 90 89 273 114 89 274 91 89 275 120 90 276 122 90 277 121 90 278 121 9 279 119 9 280 120 9 281 118 9 282 124 9 283 119 9 284 99 91 285 120 91 286 97 91 287 96 92 288 124 92 289 101 92 290 97 93 291 123 93 292 100 93 293 98 94 294 122 94 295 99 94 296 1 0 297 0 95 298 35 1 299 3 3 300 2 96 301 28 4 302 10 8 303 20 20 304 22 97 305 22 97 306 23 6 307 10 8 308 53 98 309 12 98 310 57 98 311 12 9 312 14 9 313 57 9 314 13 9 315 11 9 316 10 9 317 11 9 318 5 9 319 10 9 320 14 9 321 13 9 322 57 9 323 13 99 324 10 99 325 57 99 326 10 9 327 9 9 328 57 9 329 56 9 330 57 9 331 7 9 332 8 100 333 57 100 334 9 100 335 28 9 336 52 9 337 56 9 338 30 9 339 28 9 340 56 9 341 57 101 342 8 101 343 7 101 344 29 102 345 30 102 346 56 102 347 4 9 348 27 9 349 6 9 350 27 103 351 29 103 352 6 103 353 29 104 354 56 104 355 6 104 356 12 10 357 0 95 358 1 0 359 17 12 360 15 21 361 11 13 362 19 15 363 14 17 364 12 10 365 18 16 366 13 14 367 14 17 368 9 7 369 23 6 370 24 18 371 20 20 372 5 22 373 11 13 374 8 19 375 24 18 376 25 23 377 50 105 378 32 105 379 34 105 380 33 106 381 31 106 382 26 106 383 31 107 384 21 107 385 26 107 386 50 108 387 34 108 388 25 108 389 34 109 390 33 109 391 25 109 392 19 52 393 16 52 394 50 52 395 15 52 396 17 52 397 20 52 398 17 52 399 18 52 400 22 52 401 22 52 402 18 52 403 23 52 404 18 52 405 19 52 406 23 52 407 19 52 408 50 52 409 24 52 410 23 52 411 19 52 412 24 52 413 33 110 414 26 110 415 25 110 416 22 52 417 20 52 418 17 52 419 31 30 420 27 32 421 4 28 422 36 36 423 2 96 424 3 3 425 35 9 426 0 9 427 97 9 428 100 111 429 96 111 430 2 111 431 41 9 432 35 9 433 97 9 434 40 9 435 41 9 436 97 9 437 97 112 438 100 112 439 39 112 440 100 9 441 2 9 442 36 9 443 38 9 444 100 9 445 37 9 446 36 113 447 37 113 448 100 113 449 39 114 450 40 114 451 97 114 452 2 9 453 96 9 454 101 9 455 101 9 456 95 9 457 93 9 458 95 115 459 88 115 460 93 115 461 58 116 462 52 116 463 28 116 464 80 9 465 51 9 466 86 9 467 51 117 468 58 117 469 86 117 470 2 118 471 101 118 472 93 118 473 94 9 474 87 9 475 79 9 476 2 119 477 93 119 478 85 119 479 93 120 480 94 120 481 85 120 482 86 9 483 58 9 484 28 9 485 94 121 486 79 121 487 85 121 488 85 9 489 86 9 490 2 9 491 83 122 492 107 122 493 105 122 494 42 52 495 3 52 496 44 52 497 3 123 498 50 123 499 45 123 500 44 52 501 3 52 502 45 52 503 50 124 504 1 124 505 46 124 506 1 52 507 43 52 508 48 52 509 1 52 510 48 52 511 47 52 512 1 125 513 47 125 514 46 125 515 52 126 516 60 126 517 64 126 518 57 127 519 65 127 520 61 127 521 67 9 522 54 9 523 72 9 524 54 9 525 51 9 526 72 9 527 51 128 528 80 128 529 71 128 530 80 9 531 82 9 532 71 9 533 82 129 534 68 129 535 71 129 536 58 130 537 66 130 538 60 130 539 62 9 540 61 9 541 59 9 542 61 131 543 65 131 544 60 131 545 65 9 546 64 9 547 60 9 548 53 132 549 61 132 550 63 132 551 51 133 552 59 133 553 66 133 554 56 134 555 64 134 556 65 134 557 54 135 558 62 135 559 59 135 560 55 136 561 63 136 562 62 136 563 76 137 564 75 137 565 73 137 566 71 138 567 77 138 568 78 138 569 68 139 570 74 139 571 77 139 572 78 140 573 77 140 574 74 140 575 69 141 576 75 141 577 76 141 578 72 142 579 78 142 580 73 142 581 70 143 582 76 143 583 74 143 584 67 144 585 73 144 586 75 144 587 68 145 588 82 145 589 84 145 590 83 146 591 81 146 592 90 146 593 70 9 594 68 9 595 84 9 596 83 9 597 90 9 598 91 9 599 70 147 600 84 147 601 91 147 602 84 148 603 83 148 604 91 148 605 54 9 606 67 9 607 55 9 608 67 9 609 69 9 610 55 9 611 69 9 612 70 9 613 91 9 614 92 9 615 89 9 616 98 9 617 92 149 618 98 149 619 99 149 620 99 150 621 97 150 622 0 150 623 12 9 624 53 9 625 69 9 626 53 151 627 55 151 628 69 151 629 92 152 630 99 152 631 0 152 632 12 9 633 69 9 634 91 9 635 91 9 636 92 9 637 0 9 638 82 69 639 106 69 640 108 69 641 81 153 642 105 153 643 103 153 644 86 154 645 110 154 646 104 154 647 87 155 648 49 155 649 113 155 650 93 156 651 116 156 652 117 156 653 90 157 654 81 157 655 79 157 656 88 158 657 111 158 658 116 158 659 100 159 660 123 159 661 119 159 662 95 160 663 118 160 664 121 160 665 98 161 666 89 161 667 88 161 668 101 162 669 124 162 670 118 162 671 106 163 672 102 163 673 108 163 674 102 164 675 105 164 676 107 164 677 102 165 678 104 165 679 110 165 680 110 166 681 109 166 682 103 166 683 85 80 684 109 80 685 110 80 686 79 81 687 103 81 688 109 81 689 80 167 690 104 167 691 106 167 692 84 168 693 108 168 694 107 168 695 112 169 696 115 169 697 114 169 698 112 170 699 113 170 700 49 170 701 117 171 702 116 171 703 111 171 704 91 172 705 114 172 706 115 172 707 94 173 708 117 173 709 49 173 710 89 174 711 112 174 712 111 174 713 92 175 714 115 175 715 112 175 716 90 176 717 113 176 718 114 176 719 118 9 720 119 9 721 121 9 722 119 177 723 123 177 724 120 177 725 99 178 726 122 178 727 120 178 728 96 179 729 119 179 730 124 179 731 97 93 732 120 93 733 123 93 734 98 180 735 121 180 736 122 180 737</p>
        </triangles>
      </mesh>
    </geometry>
  </library_geometries>
  <library_visual_scenes>
    <visual_scene id="Scene" name="Scene">
      <node id="Cube" name="Cube" type="NODE">
        <matrix sid="transform">1 0 0 0 0 1 0 0 0 0 1.185132 0 0 0 0 1</matrix>
        <instance_geometry url="#Cube-mesh" name="Cube">
          <bind_material>
            <technique_common>
              <instance_material symbol="Material-material" target="#Material-material">
                <bind_vertex_input semantic="UVMap" input_semantic="TEXCOORD" input_set="0"/>
              </instance_material>
            </technique_common>
          </bind_material>
        </instance_geometry>
      </node>
    </visual_scene>
  </library_visual_scenes>
  <scene>
    <instance_visual_scene url="#Scene"/>
  </scene>
</COLLADA>